<svg xmlns="http://www.w3.org/2000/svg" version="1.1" xmlns:xlink="http://www.w3.org/1999/xlink" xmlns:svgjs="http://svgjs.dev/svgjs" width="2000" height="1252" viewBox="0 0 2000 1252"><g transform="matrix(1,0,0,1,-1.2121212121212466,-2.01935483870966)"><svg viewBox="0 0 396 248" data-background-color="#ffffff" preserveAspectRatio="xMidYMid meet" height="1252" width="2000" xmlns="http://www.w3.org/2000/svg" xmlns:xlink="http://www.w3.org/1999/xlink"><g id="tight-bounds" transform="matrix(1,0,0,1,0.2400000000000091,0.4000000000000057)"><svg viewBox="0 0 395.52 247.2" height="247.2" width="395.52"><g><svg></svg></g><g><svg viewBox="0 0 395.52 247.2" height="247.2" width="395.52"><g transform="matrix(1,0,0,1,107.96475254932236,47.215199999999996)"><svg viewBox="0 0 179.59049490135527 152.7696" height="152.7696" width="179.59049490135527"><g><svg viewBox="0 0 179.59049490135527 152.7696" height="152.7696" width="179.59049490135527"><g><svg viewBox="0 0 179.59049490135527 152.7696" height="152.7696" width="179.59049490135527"><g id="textblocktransform"><svg viewBox="0 0 179.59049490135527 152.7696" height="152.7696" width="179.59049490135527" id="textblock"><g><svg viewBox="0 0 179.59049490135527 152.7696" height="152.7696" width="179.59049490135527"><rect width="179.59049490135527" height="152.7696" x="0" y="0" opacity="1" fill="#9380d7" data-fill-palette-color="tertiary"></rect><g transform="matrix(1,0,0,1,14.5894968,14.5894968)"><svg width="150.41150130135526" viewBox="-0.9 -32.8 41.934340659340656 34.45671875" height="123.5906064" data-palette-color="#ffffff"><path d="M11.85 1.65L11.85 1.65Q10.2 1.7 8.2 1.38 6.2 1.05 4.3 0.25 2.4-0.55 1-1.85-0.4-3.15-0.9-5.05L-0.9-5.05Q0.9-3.45 4-2.73 7.1-2 10.3-2L10.3-2Q14.55-2 17.7-2.95L17.7-2.95Q18.6-3.2 19.8-3.78 21-4.35 22.15-5.13 23.3-5.9 24.08-6.85 24.85-7.8 24.85-8.8L24.85-8.8Q24.85-9.5 24.4-10.15 23.95-10.8 22.95-11.45L22.95-11.45Q22.35-11.8 21.23-12.23 20.1-12.65 18.8-13.23 17.5-13.8 16.35-14.58 15.2-15.35 14.53-16.43 13.85-17.5 14-18.9L14-18.9Q14.25-20.95 15.88-22.98 17.5-25 19.98-26.78 22.45-28.55 25.33-29.9 28.2-31.25 30.98-32.02 33.75-32.8 35.9-32.8L35.9-32.8Q38.1-32.8 39.68-31.95 41.25-31.1 41-29.05L41-29.05Q40.9-28.15 39.78-26.9 38.65-25.65 37.1-24.15 35.55-22.65 34.02-21 32.5-19.35 31.53-17.65 30.55-15.95 30.65-14.35L30.65-14.35Q29.85-15 29.48-15.8 29.1-16.6 29.1-17.45L29.1-17.45Q29.1-18.65 29.6-19.9 30.1-21.15 30.85-22.28 31.6-23.4 32.25-24.2L32.25-24.2Q33.4-25.6 34.85-26.85 36.3-28.1 37.8-29.15L37.8-29.15Q37.35-29.8 36.25-29.8L36.25-29.8Q35.1-29.8 33.68-29.3 32.25-28.8 31.03-28.23 29.8-27.65 29.3-27.35L29.3-27.35Q27.15-26.2 24.98-24.75 22.8-23.3 20.98-21.8 19.15-20.3 18.03-19.03 16.9-17.75 16.8-16.9L16.8-16.9Q16.7-15.85 17.7-15.13 18.7-14.4 20.3-13.8 21.9-13.2 23.45-12.4L23.45-12.4Q25.55-11.35 26.5-10 27.45-8.65 27.45-7.2L27.45-7.2Q27.45-5.4 26.1-3.68 24.75-1.95 22.45-0.8L22.45-0.8Q20.4 0.2 18.18 0.75 15.95 1.3 14.23 1.48 12.5 1.65 11.85 1.65Z" opacity="1" transform="matrix(1,0,0,1,0,0)" fill="#ffffff" class="wordmark-text-0" data-fill-palette-color="quaternary" id="text-0"></path></svg></g></svg></g></svg></g></svg></g></svg></g></svg></g><path d="M279.276 41.215L279.276 0 32.076 0 32.076 247.2 279.276 247.2 279.276 205.985 276.489 205.985 276.489 244.413 34.862 244.413 34.862 2.787 276.489 2.787 276.489 41.215Z" fill="#9380d7" stroke="transparent" data-fill-palette-color="tertiary"></path></svg></g><defs></defs></svg><rect width="395.52" height="247.2" fill="none" stroke="none" visibility="hidden"></rect></g></svg></g></svg>